{"title":"The.Merry.Gentleman[2008]720p.XviD.AC3 -CODY","uid":5650312,"size":1508816803,"categoryP":"video","categoryS":"hd___movies","magnet":"?xt=urn:btih:d872faee8b007f3fcd68822a9dd63adaf616204d&amp;dn=The.Merry.Gentleman%5B2008%5D720p.XviD.AC3+-CODY&amp;tr=udp%3A%2F%2Ftracker.openbittorrent.com%3A80&amp;tr=udp%3A%2F%2Fopen.demonii.com%3A1337&amp;tr=udp%3A%2F%2Ftracker.coppersurfer.tk%3A6969&amp;tr=udp%3A%2F%2Fexodus.desync.com%3A6969","seeders":0,"leechers":1,"uploader":"CODYBOSS1969","files":5,"time":1277631459,"description":"General\nComplete name : The.Merry.Gentleman[2008]720p.XviD.AC3 -CODY.avi\nFormat : AVI\nFormat/Info : Audio Video Interleave\nFormat profile : OpenDML\nFile size : 1.41 GiB\nDuration : 1h 36mn\nOverall bit rate : 2 080 Kbps\nWriting application : AVI-Mux GUI 1.17.8, Aug 30 2008 12:36:58\n\nVideo\nFormat : MPEG-4 Visual\nFormat profile : Streaming Video@L1\nFormat settings, BVOP : Yes\nFormat settings, QPel : Yes\nFormat settings, GMC : 3 warppoints\nFormat settings, Matrix : Default\nCodec ID : XVID\nCodec ID/Hint : XviD\nDuration : 1h 36mn\nBit rate : 1 627 Kbps\nWidth : 1 280 pixels\nHeight : 536 pixels\nDisplay aspect ratio : 2.35\nFrame rate : 23.976 fps\nResolution : 24 bits\nColorimetry : 4:2:0\nScan type : Progressive\nBits/(Pixel*Frame) : 0.099\nStream size : 1.10 GiB (78%)\nWriting library : XviD 1.2.0.dev47 (UTC 2006-11-01)\n\nAudio\nFormat : AC-3\nFormat/Info : Audio Coding 3\nCodec ID : 2000\nBit rate mode : Constant\nBit rate : 448 Kbps\nChannel(s) : 6 channels\nChannel positions : Front: L C R, Rear: L R, LFE\nSampling rate : 48.0 KHz\nStream size : 310 MiB (22%)\nAlignment : Aligned on interleaves\nInterleave, duration : 64 ms (1.53 video frames)\nInterleave, preload duration : 192 ms\n\n\n\n\nSubtitles included: Romanian, French\n\n\n\nIMDB link: http://www.imdb.com/title/tt0967945/\n","torrent":{"xt":"urn:btih:d872faee8b007f3fcd68822a9dd63adaf616204d","amp;dn":"The.Merry.Gentleman%5B2008%5D720p.XviD.AC3+-CODY","amp;tr":["udp%3A%2F%2Ftracker.openbittorrent.com%3A80","udp%3A%2F%2Fopen.demonii.com%3A1337","udp%3A%2F%2Ftracker.coppersurfer.tk%3A6969","udp%3A%2F%2Fexodus.desync.com%3A6969"],"infoHash":"d872faee8b007f3fcd68822a9dd63adaf616204d","infoHashBuffer":{"type":"Buffer","data":[216,114,250,238,139,0,127,63,205,104,130,42,157,214,58,218,246,22,32,77]},"announce":[],"urlList":[]}}